<?xml version="1.0" encoding="UTF-8" standalone="no"?>
<!DOCTYPE svg PUBLIC "-//W3C//DTD SVG 1.1//EN" "http://www.w3.org/Graphics/SVG/1.1/DTD/svg11.dtd">
<svg version="1.1" xmlns="http://www.w3.org/2000/svg" xmlns:xlink="http://www.w3.org/1999/xlink" preserveAspectRatio="xMidYMid meet" viewBox="0 0 640 640" width="1024" height="1024"><defs><path d="M337.46 25.42L340.22 25.71L342.95 26.09L345.64 26.54L348.29 27.07L350.9 27.68L353.46 28.36L355.98 29.11L358.44 29.93L360.86 30.82L363.22 31.78L365.52 32.8L367.77 33.89L369.95 35.03L372.07 36.24L374.13 37.51L376.12 38.83L378.04 40.21L379.89 41.64L381.66 43.13L383.36 44.66L384.98 46.25L386.51 47.88L387.97 49.55L389.34 51.27L390.62 53.03L391.81 54.83L392.92 56.67L393.92 58.55L394.83 60.46L395.64 62.4L396.35 64.38L396.96 66.39L397.46 68.42L397.86 70.49L398.14 72.57L398.31 74.68L398.37 76.82L398.31 78.95L398.14 81.06L397.86 83.15L397.46 85.21L396.96 87.24L396.35 89.25L395.64 91.23L394.83 93.17L393.92 95.08L392.92 96.96L391.81 98.8L390.62 100.6L389.56 102.05L268.4 102.05L267.34 100.6L266.15 98.8L265.05 96.96L264.04 95.08L263.13 93.17L262.32 91.23L261.61 89.25L261 87.24L260.5 85.21L260.1 83.15L259.82 81.06L259.65 78.95L259.59 76.82L259.65 74.68L259.82 72.57L260.1 70.49L260.5 68.42L261 66.39L261.61 64.38L262.32 62.4L263.13 60.46L264.04 58.55L265.05 56.67L266.15 54.83L267.34 53.03L268.62 51.27L269.99 49.55L271.45 47.88L272.98 46.25L274.6 44.66L276.3 43.13L278.07 41.64L279.92 40.21L281.84 38.83L283.83 37.51L285.89 36.24L288.01 35.03L290.19 33.89L292.44 32.8L294.74 31.78L297.1 30.82L299.51 29.93L301.98 29.11L304.49 28.36L307.05 27.68L309.66 27.07L312.31 26.54L315 26.09L317.73 25.71L320.49 25.42L323.29 25.21L326.11 25.08L328.97 25.03L331.83 25.08L334.66 25.21L334.66 25.21L337.46 25.42Z" id="bumAXD3UU"></path><path d="M578.05 94.84C578.05 103.75 578.05 107.43 578.05 116.34C578.05 129.08 567.72 139.41 554.99 139.41C458.41 139.41 191.72 139.41 95.13 139.41C82.41 139.41 72.08 129.08 72.08 116.34C72.08 107.43 72.08 103.75 72.08 94.84C72.08 82.11 82.41 71.78 95.13 71.78C191.72 71.78 458.41 71.78 554.99 71.78C567.72 71.78 578.05 82.11 578.05 94.84Z" id="beK4gjcwF"></path><path d="M555.68 158.8L556.75 158.93L557.83 159.08L558.89 159.3L559.92 159.55L560.93 159.86L561.93 160.2L562.91 160.58L563.86 161L564.79 161.47L565.71 161.96L566.6 162.49L567.46 163.07L568.28 163.68L569.09 164.32L569.87 164.99L570.62 165.69L571.33 166.4L572.02 167.17L572.67 167.96L573.3 168.77L573.89 169.61L574.45 170.49L574.96 171.36L575.45 172.28L575.9 173.21L576.3 174.16L576.66 175.13L576.99 176.11L577.27 177.12L577.52 178.15L577.71 179.18L577.86 180.22L577.97 181.3L578.03 182.36L578.05 183.45L578.02 184.54L577.94 185.64L577.8 186.75L576.82 193.76L575.74 201.31L574.61 209.38L573.39 217.92L572.11 226.92L570.77 236.35L569.39 246.18L567.94 256.38L566.44 266.91L564.92 277.77L563.33 288.89L561.72 300.28L560.07 311.9L558.4 323.71L556.71 335.71L554.98 347.82L553.25 360.07L551.5 372.39L549.74 384.78L547.98 397.19L546.24 409.61L544.48 421.99L542.73 434.31L540.99 446.56L539.28 458.69L537.58 470.67L535.91 482.48L534.26 494.1L532.64 505.49L531.07 516.63L529.54 527.47L528.04 538.02L526.59 548.2L525.21 558.03L523.87 567.46L522.59 576.46L521.38 585.01L520.24 593.08L519.16 600.62L518.17 607.65L517.98 608.85L517.75 610.02L517.47 611.19L517.15 612.34L516.8 613.46L516.41 614.58L515.97 615.67L515.5 616.73L514.99 617.79L514.44 618.82L513.87 619.82L513.26 620.8L512.62 621.75L511.95 622.68L511.23 623.59L510.5 624.46L509.74 625.31L508.94 626.14L508.12 626.93L507.26 627.7L506.39 628.43L505.49 629.13L504.55 629.8L503.6 630.46L502.64 631.05L501.64 631.62L500.63 632.17L499.58 632.67L498.54 633.13L497.46 633.57L496.37 633.96L495.25 634.32L494.13 634.63L492.99 634.91L491.84 635.14L490.67 635.33L489.49 635.49L488.29 635.6L487.09 635.66L485.87 635.69L480.42 635.69L474.56 635.69L468.33 635.69L461.76 635.69L454.83 635.69L447.6 635.69L440.07 635.69L432.27 635.69L424.22 635.69L415.94 635.69L407.45 635.69L398.76 635.69L389.93 635.69L380.93 635.69L371.81 635.69L362.59 635.69L353.27 635.69L343.91 635.69L334.5 635.69L325.06 635.69L315.62 635.69L306.21 635.69L296.85 635.69L287.54 635.69L278.31 635.69L269.2 635.69L260.21 635.69L251.36 635.69L242.67 635.69L234.18 635.69L225.91 635.69L217.86 635.69L210.05 635.69L202.53 635.69L195.3 635.69L188.37 635.69L181.79 635.69L175.56 635.69L169.7 635.69L164.25 635.69L163.04 635.66L161.84 635.6L160.64 635.49L159.45 635.33L158.29 635.14L157.13 634.91L156 634.63L154.87 634.32L153.77 633.96L152.66 633.57L151.59 633.13L150.54 632.67L149.5 632.17L148.49 631.62L147.49 631.05L146.52 630.46L145.57 629.8L144.64 629.13L143.74 628.43L142.86 627.7L142.01 626.93L141.2 626.14L140.39 625.31L139.62 624.46L138.89 623.59L138.19 622.68L137.5 621.75L136.87 620.8L136.26 619.82L135.68 618.82L135.14 617.79L134.62 616.73L134.16 615.67L133.72 614.58L133.33 613.46L132.97 612.34L132.66 611.19L132.38 610.02L132.15 608.85L131.96 607.65L130.96 600.62L129.89 593.08L128.75 585.01L127.53 576.46L126.26 567.46L124.92 558.03L123.53 548.2L122.08 538.02L120.6 527.47L119.06 516.63L117.49 505.49L115.87 494.1L114.22 482.48L112.55 470.67L110.85 458.69L109.14 446.56L107.39 434.31L105.65 421.99L103.9 409.61L102.14 397.19L100.38 384.78L98.62 372.39L96.88 360.07L95.15 347.82L93.42 335.71L91.72 323.71L90.05 311.9L88.4 300.28L86.8 288.89L85.21 277.77L83.68 266.91L82.19 256.38L80.74 246.18L79.35 236.35L78.01 226.92L76.73 217.92L75.54 209.38L74.38 201.31L73.32 193.76L72.33 186.75L72.19 185.64L72.11 184.54L72.08 183.45L72.09 182.36L72.15 181.3L72.26 180.22L72.42 179.18L72.61 178.15L72.86 177.12L73.14 176.11L73.46 175.13L73.84 174.16L74.24 173.21L74.68 172.28L75.16 171.36L75.68 170.49L76.24 169.61L76.83 168.77L77.45 167.96L78.11 167.17L78.79 166.4L79.51 165.69L80.26 164.99L81.03 164.32L81.84 163.68L82.67 163.07L83.54 162.49L84.41 161.96L85.33 161.47L86.27 161L87.22 160.58L88.2 160.2L89.2 159.86L90.21 159.55L91.24 159.3L92.3 159.08L93.37 158.93L94.46 158.8L95.55 158.72L96.67 158.71L104.26 158.71L112.42 158.71L121.16 158.71L130.42 158.71L140.17 158.71L150.4 158.71L161.06 158.71L172.12 158.71L183.55 158.71L195.33 158.71L207.42 158.71L219.79 158.71L232.41 158.71L245.24 158.71L258.25 158.71L271.43 158.71L284.73 158.71L298.13 158.71L311.57 158.71L325.06 158.71L338.55 158.71L352 158.71L365.39 158.71L378.7 158.71L391.88 158.71L404.88 158.71L417.72 158.71L430.34 158.71L442.71 158.71L454.8 158.71L466.57 158.71L478.01 158.71L489.07 158.71L499.72 158.71L509.96 158.71L519.71 158.71L528.96 158.71L537.7 158.71L545.88 158.71L553.45 158.71L553.45 158.71L554.57 158.72L555.68 158.8Z" id="b2Ey3yxxU"></path><path d="M327.45 505.74L329.47 505.99L331.47 506.33L333.43 506.77L335.36 507.3L337.24 507.92L339.08 508.62L340.89 509.4L342.65 510.27L344.36 511.22L346.02 512.25L347.62 513.36L349.18 514.52L350.67 515.76L352.11 517.06L353.48 518.43L354.79 519.87L356.02 521.36L357.2 522.92L358.29 524.53L359.32 526.19L360.27 527.89L361.14 529.65L361.92 531.46L362.64 533.3L363.24 535.18L363.77 537.11L364.21 539.08L364.57 541.07L364.82 543.09L364.96 545.15L365.02 547.22L364.96 549.31L364.82 551.35L364.57 553.38L364.21 555.37L363.77 557.33L363.24 559.26L362.64 561.15L361.92 562.99L361.14 564.79L360.27 566.55L359.32 568.25L358.29 569.92L357.2 571.52L356.02 573.08L354.79 574.58L353.48 576.01L352.11 577.38L350.67 578.69L349.18 579.92L347.62 581.1L346.02 582.2L344.36 583.22L342.65 584.17L340.89 585.05L339.08 585.82L337.24 586.53L335.36 587.15L333.43 587.68L331.47 588.11L329.47 588.47L327.45 588.72L325.41 588.86L323.32 588.92L321.25 588.86L319.19 588.72L317.16 588.47L315.17 588.11L313.21 587.68L311.28 587.15L309.39 586.53L307.55 585.82L305.75 585.05L303.99 584.17L302.29 583.22L300.62 582.2L299.02 581.1L297.46 579.92L295.98 578.69L294.53 577.38L293.16 576.01L291.85 574.58L290.62 573.08L289.45 571.52L288.35 569.92L287.32 568.25L286.37 566.55L285.51 564.79L284.72 562.99L284.01 561.15L283.39 559.26L282.86 557.33L282.43 555.37L282.08 553.38L281.83 551.35L281.68 549.31L281.63 547.22L281.68 545.15L281.83 543.09L282.08 541.07L282.43 539.08L282.86 537.11L283.39 535.18L284.01 533.3L284.72 531.46L285.51 529.65L286.37 527.89L287.32 526.19L288.35 524.53L289.45 522.92L290.62 521.36L291.85 519.87L293.16 518.43L294.53 517.06L295.98 515.76L297.46 514.52L299.02 513.36L300.62 512.25L302.29 511.22L303.99 510.27L305.75 509.4L307.55 508.62L309.39 507.92L311.28 507.3L313.21 506.77L315.17 506.33L317.16 505.99L319.19 505.74L321.25 505.58L323.32 505.54L325.41 505.58L327.45 505.74Z" id="b8hfHezbQE"></path><path d="M421.64 390.14C405.6 400.47 361.15 417.7 355.63 455C350.1 492.29 274.47 498.5 286.22 439.7C297.98 380.91 341.35 371.41 365.02 350.54C388.69 329.66 390.2 285.56 354.68 269.02C319.17 252.47 285.27 276.68 272.36 308.16C259.44 339.64 226.35 342.87 210.61 329.15C194.87 315.43 198.1 287.18 206.98 269.02C215.86 250.85 247.74 203.64 329.26 202.83C410.78 202.02 464.86 255.29 465.26 308.16C465.35 319.64 461.74 364.31 421.64 390.14Z" id="b3nQ6AoioR"></path></defs><g><g><g><use xlink:href="#bumAXD3UU" opacity="1" fill="#ffffff" fill-opacity="0"></use><g><use xlink:href="#bumAXD3UU" opacity="1" fill-opacity="0" stroke="#2373c8" stroke-width="36" stroke-opacity="1"></use></g></g><g><use xlink:href="#beK4gjcwF" opacity="1" fill="#2373c8" fill-opacity="1"></use><g><use xlink:href="#beK4gjcwF" opacity="1" fill-opacity="0" stroke="#000000" stroke-width="1" stroke-opacity="0"></use></g></g><g><use xlink:href="#b2Ey3yxxU" opacity="1" fill="#2373c8" fill-opacity="1"></use><g><use xlink:href="#b2Ey3yxxU" opacity="1" fill-opacity="0" stroke="#000000" stroke-width="1" stroke-opacity="0"></use></g></g><g><use xlink:href="#b8hfHezbQE" opacity="1" fill="#ffffff" fill-opacity="1"></use><g><use xlink:href="#b8hfHezbQE" opacity="1" fill-opacity="0" stroke="#000000" stroke-width="1" stroke-opacity="0"></use></g></g><g><use xlink:href="#b3nQ6AoioR" opacity="1" fill="#ffffff" fill-opacity="1"></use></g></g></g></svg>