<?xml version="1.0" encoding="UTF-8" standalone="no"?>
<!DOCTYPE svg PUBLIC "-//W3C//DTD SVG 1.1//EN" "http://www.w3.org/Graphics/SVG/1.1/DTD/svg11.dtd">
<svg version="1.1" xmlns="http://www.w3.org/2000/svg" xmlns:xlink="http://www.w3.org/1999/xlink" preserveAspectRatio="xMidYMid meet" viewBox="0 0 640 640" width="1024" height="1024"><defs><path d="M320 630C148.9 630 10 491.1 10 320C10 148.91 148.9 10 320 10C491.09 10 630 148.91 630 320C630 491.1 491.09 630 320 630Z" id="a1gj9zk1FI"></path><path d="M329.25 92.39L331.32 92.61L333.35 92.89L335.36 93.23L337.34 93.62L339.28 94.08L341.2 94.58L343.07 95.14L344.91 95.76L346.72 96.42L348.48 97.14L350.2 97.9L351.87 98.71L353.5 99.57L355.09 100.47L356.62 101.42L358.11 102.4L359.54 103.43L360.92 104.5L362.24 105.61L363.51 106.76L364.72 107.94L365.87 109.15L366.95 110.4L367.98 111.69L368.93 113L369.82 114.35L370.65 115.72L371.4 117.12L372.08 118.55L372.68 120L373.21 121.47L373.67 122.97L374.04 124.49L374.33 126.03L374.55 127.59L374.67 129.16L374.72 130.75L374.67 132.35L374.55 133.92L374.33 135.48L374.04 137.02L373.67 138.54L373.21 140.03L372.68 141.51L372.08 142.96L371.4 144.39L370.65 145.79L369.82 147.16L368.93 148.5L368.14 149.59L277.71 149.59L276.92 148.5L276.02 147.16L275.2 145.79L274.45 144.39L273.77 142.96L273.17 141.51L272.64 140.03L272.18 138.54L271.81 137.02L271.51 135.48L271.3 133.92L271.17 132.35L271.13 130.75L271.17 129.16L271.3 127.59L271.51 126.03L271.81 124.49L272.18 122.97L272.64 121.47L273.17 120L273.77 118.55L274.45 117.12L275.2 115.72L276.02 114.35L276.92 113L277.87 111.69L278.89 110.4L279.98 109.15L281.13 107.94L282.34 106.76L283.6 105.61L284.93 104.5L286.31 103.43L287.74 102.4L289.22 101.42L290.76 100.47L292.34 99.57L293.97 98.71L295.65 97.9L297.37 97.14L299.13 96.42L300.93 95.76L302.77 95.14L304.65 94.58L306.56 94.08L308.5 93.62L310.48 93.23L312.49 92.89L314.52 92.61L316.59 92.39L318.67 92.23L320.79 92.14L322.92 92.1L325.05 92.14L327.16 92.23L327.16 92.23L329.25 92.39Z" id="c17J8kL6A"></path><path d="M508.83 144.21C508.83 150.86 508.83 153.6 508.83 160.25C508.83 169.76 501.12 177.47 491.62 177.47C419.53 177.47 220.47 177.47 148.38 177.47C138.88 177.47 131.17 169.76 131.17 160.25C131.17 153.6 131.17 150.86 131.17 144.21C131.17 134.71 138.88 127 148.38 127C220.47 127 419.53 127 491.62 127C501.12 127 508.83 134.71 508.83 144.21Z" id="arUTNiF6F"></path><path d="M492.13 191.95L492.93 192.04L493.74 192.16L494.53 192.32L495.29 192.51L496.05 192.74L496.79 192.99L497.53 193.27L498.24 193.59L498.93 193.94L499.62 194.31L500.28 194.7L500.92 195.13L501.54 195.59L502.14 196.06L502.72 196.56L503.28 197.09L503.82 197.62L504.33 198.19L504.82 198.79L505.28 199.39L505.72 200.02L506.14 200.67L506.53 201.32L506.89 202.01L507.22 202.7L507.53 203.41L507.79 204.13L508.04 204.87L508.25 205.62L508.43 206.39L508.57 207.16L508.69 207.94L508.77 208.74L508.82 209.53L508.83 210.34L508.8 211.16L508.75 211.98L508.64 212.81L507.91 218.04L507.11 223.68L506.26 229.7L505.35 236.07L504.4 242.79L503.4 249.83L502.36 257.17L501.28 264.78L500.17 272.64L499.03 280.75L497.84 289.05L496.64 297.55L495.41 306.22L494.17 315.04L492.9 323.99L491.61 333.03L490.32 342.17L489.01 351.37L487.7 360.61L486.39 369.88L485.08 379.15L483.77 388.39L482.47 397.59L481.17 406.73L479.89 415.79L478.62 424.73L477.38 433.54L476.14 442.21L474.93 450.71L473.76 459.03L472.62 467.12L471.5 474.99L470.42 482.6L469.39 489.93L468.39 496.97L467.43 503.69L466.53 510.07L465.68 516.09L464.88 521.72L464.13 526.97L463.99 527.86L463.82 528.73L463.61 529.61L463.38 530.47L463.11 531.3L462.82 532.14L462.49 532.95L462.14 533.74L461.76 534.54L461.35 535.3L460.92 536.05L460.47 536.78L459.99 537.49L459.49 538.19L458.96 538.86L458.41 539.51L457.84 540.15L457.25 540.77L456.63 541.36L455.99 541.93L455.34 542.48L454.67 543L453.97 543.5L453.26 543.99L452.54 544.43L451.8 544.86L451.04 545.27L450.26 545.64L449.48 545.99L448.68 546.31L447.87 546.6L447.03 546.87L446.19 547.1L445.34 547.31L444.48 547.49L443.61 547.63L442.73 547.74L441.83 547.83L440.94 547.87L440.03 547.9L435.96 547.9L431.59 547.9L426.94 547.9L422.03 547.9L416.86 547.9L411.46 547.9L405.84 547.9L400.02 547.9L394.01 547.9L387.83 547.9L381.5 547.9L375.01 547.9L368.42 547.9L361.7 547.9L354.89 547.9L348.01 547.9L341.06 547.9L334.07 547.9L327.05 547.9L320 547.9L312.95 547.9L305.93 547.9L298.94 547.9L291.99 547.9L285.11 547.9L278.3 547.9L271.6 547.9L264.99 547.9L258.5 547.9L252.17 547.9L245.99 547.9L239.98 547.9L234.16 547.9L228.54 547.9L223.14 547.9L217.97 547.9L213.06 547.9L208.41 547.9L204.04 547.9L199.97 547.9L199.06 547.87L198.17 547.83L197.27 547.74L196.39 547.63L195.52 547.49L194.66 547.31L193.81 547.1L192.97 546.87L192.15 546.6L191.32 546.31L190.52 545.99L189.74 545.64L188.96 545.27L188.2 544.86L187.46 544.43L186.74 543.99L186.03 543.5L185.33 543L184.66 542.48L184.01 541.93L183.37 541.36L182.76 540.77L182.16 540.15L181.59 539.51L181.04 538.86L180.52 538.19L180.01 537.49L179.53 536.78L179.08 536.05L178.65 535.3L178.24 534.54L177.86 533.74L177.51 532.95L177.18 532.14L176.89 531.3L176.62 530.47L176.39 529.61L176.18 528.73L176.01 527.86L175.87 526.97L175.12 521.72L174.32 516.09L173.47 510.07L172.57 503.69L171.61 496.97L170.61 489.93L169.58 482.6L168.5 474.99L167.39 467.12L166.24 459.03L165.07 450.71L163.86 442.21L162.62 433.54L161.38 424.73L160.11 415.79L158.83 406.73L157.53 397.59L156.23 388.39L154.93 379.15L153.61 369.88L152.3 360.61L150.99 351.37L149.68 342.17L148.39 333.03L147.1 323.99L145.83 315.04L144.59 306.22L143.36 297.55L142.16 289.05L140.97 280.75L139.83 272.64L138.72 264.78L137.64 257.17L136.6 249.83L135.6 242.79L134.65 236.07L133.75 229.7L132.89 223.68L132.1 218.04L131.36 212.81L131.25 211.98L131.2 211.16L131.17 210.34L131.18 209.53L131.23 208.74L131.31 207.94L131.43 207.16L131.57 206.39L131.75 205.62L131.96 204.87L132.21 204.13L132.49 203.41L132.79 202.7L133.11 202.01L133.47 201.32L133.86 200.67L134.28 200.02L134.72 199.39L135.18 198.79L135.67 198.19L136.18 197.62L136.72 197.09L137.28 196.56L137.86 196.06L138.46 195.59L139.08 195.13L139.73 194.7L140.38 194.31L141.07 193.94L141.76 193.59L142.47 193.27L143.21 192.99L143.95 192.74L144.71 192.51L145.47 192.32L146.26 192.16L147.07 192.04L147.88 191.95L148.69 191.89L149.53 191.88L155.19 191.88L161.29 191.88L167.81 191.88L174.72 191.88L182 191.88L189.63 191.88L197.59 191.88L205.84 191.88L214.38 191.88L223.17 191.88L232.19 191.88L241.42 191.88L250.84 191.88L260.42 191.88L270.13 191.88L279.97 191.88L289.9 191.88L299.9 191.88L309.93 191.88L320 191.88L330.07 191.88L340.1 191.88L350.1 191.88L360.03 191.88L369.87 191.88L379.58 191.88L389.16 191.88L398.58 191.88L407.81 191.88L416.83 191.88L425.62 191.88L434.16 191.88L442.41 191.88L450.37 191.88L458 191.88L465.28 191.88L472.19 191.88L478.71 191.88L484.82 191.88L490.47 191.88L490.47 191.88L491.31 191.89L492.13 191.95Z" id="c27PT8Ni8n"></path><path d="M321.78 450.9L323.29 451.09L324.78 451.34L326.24 451.67L327.69 452.06L329.09 452.53L330.46 453.05L331.81 453.63L333.13 454.28L334.41 454.99L335.64 455.76L336.84 456.59L338 457.46L339.12 458.38L340.19 459.35L341.21 460.38L342.18 461.45L343.1 462.56L343.99 463.73L344.8 464.92L345.57 466.17L346.28 467.43L346.93 468.75L347.51 470.1L348.05 471.47L348.5 472.88L348.89 474.32L349.22 475.78L349.49 477.27L349.67 478.78L349.78 480.32L349.82 481.86L349.78 483.42L349.67 484.95L349.49 486.46L349.22 487.94L348.89 489.41L348.5 490.85L348.05 492.26L347.51 493.63L346.93 494.98L346.28 496.29L345.57 497.56L344.8 498.8L343.99 500L343.1 501.17L342.18 502.28L341.21 503.35L340.19 504.37L339.12 505.35L338 506.27L336.84 507.15L335.64 507.97L334.41 508.73L333.13 509.44L331.81 510.09L330.46 510.68L329.09 511.2L327.69 511.66L326.24 512.06L324.78 512.39L323.29 512.65L321.78 512.84L320.26 512.94L318.7 512.99L317.15 512.94L315.62 512.84L314.1 512.65L312.62 512.39L311.15 512.06L309.71 511.66L308.3 511.2L306.93 510.68L305.58 510.09L304.27 509.44L303 508.73L301.76 507.97L300.56 507.15L299.4 506.27L298.29 505.35L297.21 504.37L296.19 503.35L295.21 502.28L294.29 501.17L293.42 500L292.59 498.8L291.83 497.56L291.12 496.29L290.48 494.98L289.89 493.63L289.36 492.26L288.9 490.85L288.5 489.41L288.18 487.94L287.92 486.46L287.73 484.95L287.62 483.42L287.58 481.86L287.62 480.32L287.73 478.78L287.92 477.27L288.18 475.78L288.5 474.32L288.9 472.88L289.36 471.47L289.89 470.1L290.48 468.75L291.12 467.43L291.83 466.17L292.59 464.92L293.42 463.73L294.29 462.56L295.21 461.45L296.19 460.38L297.21 459.35L298.29 458.38L299.4 457.46L300.56 456.59L301.76 455.76L303 454.99L304.27 454.28L305.58 453.63L306.93 453.05L308.3 452.53L309.71 452.06L311.15 451.67L312.62 451.34L314.1 451.09L315.62 450.9L317.15 450.78L318.7 450.75L320.26 450.78L321.78 450.9Z" id="dohFRflz"></path><path d="M392.08 364.62C380.11 372.33 346.94 385.19 342.81 413.03C338.69 440.86 282.24 445.5 291.01 401.61C299.78 357.73 332.15 350.64 349.82 335.06C367.49 319.48 368.62 286.56 342.11 274.21C315.6 261.86 290.3 279.93 280.66 303.43C271.02 326.93 246.32 329.34 234.57 319.09C222.82 308.85 225.23 287.77 231.86 274.21C238.49 260.66 262.28 225.41 323.13 224.81C383.98 224.21 424.34 263.97 424.65 303.43C424.71 312 422.01 345.34 392.08 364.62Z" id="b5ogu406Y"></path></defs><g><g><g><use xlink:href="#a1gj9zk1FI" opacity="1" fill="#2373c8" fill-opacity="1"></use><g><use xlink:href="#a1gj9zk1FI" opacity="1" fill-opacity="0" stroke="#000000" stroke-width="1" stroke-opacity="0"></use></g></g><g><use xlink:href="#c17J8kL6A" opacity="1" fill="#ffffff" fill-opacity="0"></use><g><use xlink:href="#c17J8kL6A" opacity="1" fill-opacity="0" stroke="#ffffff" stroke-width="36" stroke-opacity="1"></use></g></g><g><use xlink:href="#arUTNiF6F" opacity="1" fill="#ffffff" fill-opacity="1"></use><g><use xlink:href="#arUTNiF6F" opacity="1" fill-opacity="0" stroke="#000000" stroke-width="1" stroke-opacity="0"></use></g></g><g><use xlink:href="#c27PT8Ni8n" opacity="1" fill="#ffffff" fill-opacity="1"></use><g><use xlink:href="#c27PT8Ni8n" opacity="1" fill-opacity="0" stroke="#000000" stroke-width="1" stroke-opacity="0"></use></g></g><g><use xlink:href="#dohFRflz" opacity="1" fill="#2373c8" fill-opacity="1"></use><g><use xlink:href="#dohFRflz" opacity="1" fill-opacity="0" stroke="#000000" stroke-width="1" stroke-opacity="0"></use></g></g><g><use xlink:href="#b5ogu406Y" opacity="1" fill="#2373c8" fill-opacity="1"></use></g></g></g></svg>