<?xml version="1.0" encoding="UTF-8" standalone="no"?>
<!DOCTYPE svg PUBLIC "-//W3C//DTD SVG 1.1//EN" "http://www.w3.org/Graphics/SVG/1.1/DTD/svg11.dtd">
<svg version="1.1" xmlns="http://www.w3.org/2000/svg" xmlns:xlink="http://www.w3.org/1999/xlink" preserveAspectRatio="xMidYMid meet" viewBox="0 0 640 640" width="1024" height="1024"><defs><path d="M330 640C158.9 640 20 501.1 20 330C20 158.91 158.9 20 330 20C501.09 20 640 158.91 640 330C640 501.1 501.09 640 330 640Z" id="b3ywbv2m3W"></path><path d="M339.25 102.39L341.32 102.61L343.35 102.89L345.36 103.23L347.34 103.62L349.28 104.08L351.2 104.58L353.07 105.14L354.91 105.76L356.72 106.42L358.48 107.14L360.2 107.9L361.87 108.71L363.5 109.57L365.09 110.47L366.62 111.42L368.11 112.4L369.54 113.43L370.92 114.5L372.24 115.61L373.51 116.76L374.72 117.94L375.87 119.15L376.95 120.4L377.98 121.69L378.93 123L379.82 124.35L380.65 125.72L381.4 127.12L382.08 128.55L382.68 130L383.21 131.47L383.67 132.97L384.04 134.49L384.33 136.03L384.55 137.59L384.67 139.16L384.72 140.75L384.67 142.35L384.55 143.92L384.33 145.48L384.04 147.02L383.67 148.54L383.21 150.03L382.68 151.51L382.08 152.96L381.4 154.39L380.65 155.79L379.82 157.16L378.93 158.5L378.14 159.59L287.71 159.59L286.92 158.5L286.02 157.16L285.2 155.79L284.45 154.39L283.77 152.96L283.17 151.51L282.64 150.03L282.18 148.54L281.81 147.02L281.51 145.48L281.3 143.92L281.17 142.35L281.13 140.75L281.17 139.16L281.3 137.59L281.51 136.03L281.81 134.49L282.18 132.97L282.64 131.47L283.17 130L283.77 128.55L284.45 127.12L285.2 125.72L286.02 124.35L286.92 123L287.87 121.69L288.89 120.4L289.98 119.15L291.13 117.94L292.34 116.76L293.6 115.61L294.93 114.5L296.31 113.43L297.74 112.4L299.22 111.42L300.76 110.47L302.34 109.57L303.97 108.71L305.65 107.9L307.37 107.14L309.13 106.42L310.93 105.76L312.77 105.14L314.65 104.58L316.56 104.08L318.5 103.62L320.48 103.23L322.49 102.89L324.52 102.61L326.59 102.39L328.67 102.23L330.79 102.14L332.92 102.1L335.05 102.14L337.16 102.23L337.16 102.23L339.25 102.39Z" id="f6eT4tWdNh"></path><path d="M518.83 154.21C518.83 160.86 518.83 163.6 518.83 170.25C518.83 179.76 511.12 187.47 501.62 187.47C429.53 187.47 230.47 187.47 158.38 187.47C148.88 187.47 141.17 179.76 141.17 170.25C141.17 163.6 141.17 160.86 141.17 154.21C141.17 144.71 148.88 137 158.38 137C230.47 137 429.53 137 501.62 137C511.12 137 518.83 144.71 518.83 154.21Z" id="bju7l7S7w"></path><path d="M502.13 201.95L502.93 202.04L503.74 202.16L504.53 202.32L505.29 202.51L506.05 202.74L506.79 202.99L507.53 203.27L508.24 203.59L508.93 203.94L509.62 204.31L510.28 204.7L510.92 205.13L511.54 205.59L512.14 206.06L512.72 206.56L513.28 207.09L513.82 207.62L514.33 208.19L514.82 208.79L515.28 209.39L515.72 210.02L516.14 210.67L516.53 211.32L516.89 212.01L517.22 212.7L517.53 213.41L517.79 214.13L518.04 214.87L518.25 215.62L518.43 216.39L518.57 217.16L518.69 217.94L518.77 218.74L518.82 219.53L518.83 220.34L518.8 221.16L518.75 221.98L518.64 222.81L517.91 228.04L517.11 233.68L516.26 239.7L515.35 246.07L514.4 252.79L513.4 259.83L512.36 267.17L511.28 274.78L510.17 282.64L509.03 290.75L507.84 299.05L506.64 307.55L505.41 316.22L504.17 325.04L502.9 333.99L501.61 343.03L500.32 352.17L499.01 361.37L497.7 370.61L496.39 379.88L495.08 389.15L493.77 398.39L492.47 407.59L491.17 416.73L489.89 425.79L488.62 434.73L487.38 443.54L486.14 452.21L484.93 460.71L483.76 469.03L482.62 477.12L481.5 484.99L480.42 492.6L479.39 499.93L478.39 506.97L477.43 513.69L476.53 520.07L475.68 526.09L474.88 531.72L474.13 536.97L473.99 537.86L473.82 538.73L473.61 539.61L473.38 540.47L473.11 541.3L472.82 542.14L472.49 542.95L472.14 543.74L471.76 544.54L471.35 545.3L470.92 546.05L470.47 546.78L469.99 547.49L469.49 548.19L468.96 548.86L468.41 549.51L467.84 550.15L467.25 550.77L466.63 551.36L465.99 551.93L465.34 552.48L464.67 553L463.97 553.5L463.26 553.99L462.54 554.43L461.8 554.86L461.04 555.27L460.26 555.64L459.48 555.99L458.68 556.31L457.87 556.6L457.03 556.87L456.19 557.1L455.34 557.31L454.48 557.49L453.61 557.63L452.73 557.74L451.83 557.83L450.94 557.87L450.03 557.9L445.96 557.9L441.59 557.9L436.94 557.9L432.03 557.9L426.86 557.9L421.46 557.9L415.84 557.9L410.02 557.9L404.01 557.9L397.83 557.9L391.5 557.9L385.01 557.9L378.42 557.9L371.7 557.9L364.89 557.9L358.01 557.9L351.06 557.9L344.07 557.9L337.05 557.9L330 557.9L322.95 557.9L315.93 557.9L308.94 557.9L301.99 557.9L295.11 557.9L288.3 557.9L281.6 557.9L274.99 557.9L268.5 557.9L262.17 557.9L255.99 557.9L249.98 557.9L244.16 557.9L238.54 557.9L233.14 557.9L227.97 557.9L223.06 557.9L218.41 557.9L214.04 557.9L209.97 557.9L209.06 557.87L208.17 557.83L207.27 557.74L206.39 557.63L205.52 557.49L204.66 557.31L203.81 557.1L202.97 556.87L202.15 556.6L201.32 556.31L200.52 555.99L199.74 555.64L198.96 555.27L198.2 554.86L197.46 554.43L196.74 553.99L196.03 553.5L195.33 553L194.66 552.48L194.01 551.93L193.37 551.36L192.76 550.77L192.16 550.15L191.59 549.51L191.04 548.86L190.52 548.19L190.01 547.49L189.53 546.78L189.08 546.05L188.65 545.3L188.24 544.54L187.86 543.74L187.51 542.95L187.18 542.14L186.89 541.3L186.62 540.47L186.39 539.61L186.18 538.73L186.01 537.86L185.87 536.97L185.12 531.72L184.32 526.09L183.47 520.07L182.57 513.69L181.61 506.97L180.61 499.93L179.58 492.6L178.5 484.99L177.39 477.12L176.24 469.03L175.07 460.71L173.86 452.21L172.62 443.54L171.38 434.73L170.11 425.79L168.83 416.73L167.53 407.59L166.23 398.39L164.93 389.15L163.61 379.88L162.3 370.61L160.99 361.37L159.68 352.17L158.39 343.03L157.1 333.99L155.83 325.04L154.59 316.22L153.36 307.55L152.16 299.05L150.97 290.75L149.83 282.64L148.72 274.78L147.64 267.17L146.6 259.83L145.6 252.79L144.65 246.07L143.75 239.7L142.89 233.68L142.1 228.04L141.36 222.81L141.25 221.98L141.2 221.16L141.17 220.34L141.18 219.53L141.23 218.74L141.31 217.94L141.43 217.16L141.57 216.39L141.75 215.62L141.96 214.87L142.21 214.13L142.49 213.41L142.79 212.7L143.11 212.01L143.47 211.32L143.86 210.67L144.28 210.02L144.72 209.39L145.18 208.79L145.67 208.19L146.18 207.62L146.72 207.09L147.28 206.56L147.86 206.06L148.46 205.59L149.08 205.13L149.73 204.7L150.38 204.31L151.07 203.94L151.76 203.59L152.47 203.27L153.21 202.99L153.95 202.74L154.71 202.51L155.47 202.32L156.26 202.16L157.07 202.04L157.88 201.95L158.69 201.89L159.53 201.88L165.19 201.88L171.29 201.88L177.81 201.88L184.72 201.88L192 201.88L199.63 201.88L207.59 201.88L215.84 201.88L224.38 201.88L233.17 201.88L242.19 201.88L251.42 201.88L260.84 201.88L270.42 201.88L280.13 201.88L289.97 201.88L299.9 201.88L309.9 201.88L319.93 201.88L330 201.88L340.07 201.88L350.1 201.88L360.1 201.88L370.03 201.88L379.87 201.88L389.58 201.88L399.16 201.88L408.58 201.88L417.81 201.88L426.83 201.88L435.62 201.88L444.16 201.88L452.41 201.88L460.37 201.88L468 201.88L475.28 201.88L482.19 201.88L488.71 201.88L494.82 201.88L500.47 201.88L500.47 201.88L501.31 201.89L502.13 201.95Z" id="a225PhfiTJ"></path><path d="M331.78 460.9L333.29 461.09L334.78 461.34L336.24 461.67L337.69 462.06L339.09 462.53L340.46 463.05L341.81 463.63L343.13 464.28L344.41 464.99L345.64 465.76L346.84 466.59L348 467.46L349.12 468.38L350.19 469.35L351.21 470.38L352.18 471.45L353.1 472.56L353.99 473.73L354.8 474.92L355.57 476.17L356.28 477.43L356.93 478.75L357.51 480.1L358.05 481.47L358.5 482.88L358.89 484.32L359.22 485.78L359.49 487.27L359.67 488.78L359.78 490.32L359.82 491.86L359.78 493.42L359.67 494.95L359.49 496.46L359.22 497.94L358.89 499.41L358.5 500.85L358.05 502.26L357.51 503.63L356.93 504.98L356.28 506.29L355.57 507.56L354.8 508.8L353.99 510L353.1 511.17L352.18 512.28L351.21 513.35L350.19 514.37L349.12 515.35L348 516.27L346.84 517.15L345.64 517.97L344.41 518.73L343.13 519.44L341.81 520.09L340.46 520.68L339.09 521.2L337.69 521.66L336.24 522.06L334.78 522.39L333.29 522.65L331.78 522.84L330.26 522.94L328.7 522.99L327.15 522.94L325.62 522.84L324.1 522.65L322.62 522.39L321.15 522.06L319.71 521.66L318.3 521.2L316.93 520.68L315.58 520.09L314.27 519.44L313 518.73L311.76 517.97L310.56 517.15L309.4 516.27L308.29 515.35L307.21 514.37L306.19 513.35L305.21 512.28L304.29 511.17L303.42 510L302.59 508.8L301.83 507.56L301.12 506.29L300.48 504.98L299.89 503.63L299.36 502.26L298.9 500.85L298.5 499.41L298.18 497.94L297.92 496.46L297.73 494.95L297.62 493.42L297.58 491.86L297.62 490.32L297.73 488.78L297.92 487.27L298.18 485.78L298.5 484.32L298.9 482.88L299.36 481.47L299.89 480.1L300.48 478.75L301.12 477.43L301.83 476.17L302.59 474.92L303.42 473.73L304.29 472.56L305.21 471.45L306.19 470.38L307.21 469.35L308.29 468.38L309.4 467.46L310.56 466.59L311.76 465.76L313 464.99L314.27 464.28L315.58 463.63L316.93 463.05L318.3 462.53L319.71 462.06L321.15 461.67L322.62 461.34L324.1 461.09L325.62 460.9L327.15 460.78L328.7 460.75L330.26 460.78L331.78 460.9Z" id="cIcfqUMne"></path><path d="M402.08 374.62C390.11 382.33 356.94 395.19 352.81 423.03C348.69 450.86 292.24 455.5 301.01 411.61C309.78 367.73 342.15 360.64 359.82 345.06C377.49 329.48 378.62 296.56 352.11 284.21C325.6 271.86 300.3 289.93 290.66 313.43C281.02 336.93 256.32 339.34 244.57 329.09C232.82 318.85 235.23 297.77 241.86 284.21C248.49 270.66 272.28 235.41 333.13 234.81C393.98 234.21 434.34 273.97 434.65 313.43C434.71 322 432.01 355.34 402.08 374.62Z" id="a3Pz8WeDqS"></path></defs><g><g><g><use xlink:href="#b3ywbv2m3W" opacity="1" fill="#fdfdfd" fill-opacity="1"></use><g><use xlink:href="#b3ywbv2m3W" opacity="1" fill-opacity="0" stroke="#000000" stroke-width="1" stroke-opacity="0"></use></g></g><g><use xlink:href="#f6eT4tWdNh" opacity="1" fill="#ffffff" fill-opacity="0"></use><g><use xlink:href="#f6eT4tWdNh" opacity="1" fill-opacity="0" stroke="#2373c8" stroke-width="36" stroke-opacity="1"></use></g></g><g><use xlink:href="#bju7l7S7w" opacity="1" fill="#2373c8" fill-opacity="1"></use><g><use xlink:href="#bju7l7S7w" opacity="1" fill-opacity="0" stroke="#000000" stroke-width="1" stroke-opacity="0"></use></g></g><g><use xlink:href="#a225PhfiTJ" opacity="1" fill="#2373c8" fill-opacity="1"></use><g><use xlink:href="#a225PhfiTJ" opacity="1" fill-opacity="0" stroke="#000000" stroke-width="1" stroke-opacity="0"></use></g></g><g><use xlink:href="#cIcfqUMne" opacity="1" fill="#fdfdfd" fill-opacity="1"></use><g><use xlink:href="#cIcfqUMne" opacity="1" fill-opacity="0" stroke="#000000" stroke-width="1" stroke-opacity="0"></use></g></g><g><use xlink:href="#a3Pz8WeDqS" opacity="1" fill="#fdfdfd" fill-opacity="1"></use></g></g></g></svg>